<svg xmlns="http://www.w3.org/2000/svg" width="390" height="72" viewBox="0 0 390 72" fill="none" preserveAspectRatio="none"><defs>
<linearGradient id="brand" x1="0" y1="0" x2="1" y2="1"><stop stop-color="#4CA4FF"/><stop offset=".52" stop-color="#63CFE9"/><stop offset="1" stop-color="#8DE0B2"/></linearGradient>
<linearGradient id="brandH" x1="0" y1="0" x2="1" y2="0"><stop stop-color="#4CA4FF"/><stop offset=".52" stop-color="#63CFE9"/><stop offset="1" stop-color="#8DE0B2"/></linearGradient>
<linearGradient id="sun" x1="0" y1="0" x2=".6" y2="1"><stop stop-color="#FFEBA6"/><stop offset="1" stop-color="#F6C86B"/></linearGradient>
<radialGradient id="sunGlow"><stop stop-color="#FFE9A8" stop-opacity=".75"/><stop offset="1" stop-color="#FFE9A8" stop-opacity="0"/></radialGradient>
<radialGradient id="halo"><stop stop-color="#E3F0FF" stop-opacity=".95"/><stop offset=".7" stop-color="#EEF6FF" stop-opacity=".5"/><stop offset="1" stop-color="#F3F7FC" stop-opacity="0"/></radialGradient>
<linearGradient id="card" x1="0" y1="0" x2=".7" y2="1"><stop stop-color="#E9F6FF"/><stop offset=".58" stop-color="#D5ECFA"/><stop offset="1" stop-color="#D5F1EC"/></linearGradient>
<linearGradient id="tab" x1="0" y1="0" x2="1" y2="1"><stop stop-color="#69B8F7"/><stop offset="1" stop-color="#408FF3"/></linearGradient>
<linearGradient id="line1" x1="0" y1="0" x2="1" y2="0"><stop stop-color="#9CE7C9"/><stop offset="1" stop-color="#60D2D2"/></linearGradient>
<linearGradient id="line2" x1="0" y1="0" x2="1" y2="0"><stop stop-color="#B9E8F7"/><stop offset="1" stop-color="#74B8F3"/></linearGradient>
<linearGradient id="paper" x1="0" y1="0" x2="0" y2="1"><stop stop-color="#FFFFFF"/><stop offset="1" stop-color="#EEF5FD"/></linearGradient>
<linearGradient id="mintG" x1="0" y1="0" x2="1" y2="1"><stop stop-color="#9CE7C9"/><stop offset="1" stop-color="#3FBF8F"/></linearGradient>
<linearGradient id="wave1" x1="0" y1="0" x2="1" y2="0"><stop stop-color="#D5EFEA"/><stop offset="1" stop-color="#D8EAFB"/></linearGradient>
<linearGradient id="wave2" x1="0" y1="0" x2="1" y2="0"><stop stop-color="#CFEDE9"/><stop offset="1" stop-color="#CDE2F8"/></linearGradient>
<linearGradient id="cloud" x1="0" y1="0" x2="0" y2="1"><stop stop-color="#FFFFFF"/><stop offset="1" stop-color="#E4F0FD"/></linearGradient>
</defs><g id="wave"><path d="M0 10.8C43 0 90.3 3.7 137.6 18.8C183.5 33.6 229.9 42.1 271.9 36C315.4 29.6 351.3 12.8 390 9.4V72H0Z" fill="url(#wave1)" fill-opacity=".82"/><path d="M0 35.3C50.7 15.5 110.4 18.2 168.7 34.3C210.3 46.1 250.9 54.5 293.9 50.5C336 46.4 367.1 31.6 390 27.3V72H0Z" fill="url(#wave2)" fill-opacity=".88"/></g></svg>
