<svg xmlns="http://www.w3.org/2000/svg" width="240" height="180" viewBox="0 0 240 180" fill="none"><defs>
<linearGradient id="brand" x1="0" y1="0" x2="1" y2="1"><stop stop-color="#4CA4FF"/><stop offset=".52" stop-color="#63CFE9"/><stop offset="1" stop-color="#8DE0B2"/></linearGradient>
<linearGradient id="brandH" x1="0" y1="0" x2="1" y2="0"><stop stop-color="#4CA4FF"/><stop offset=".52" stop-color="#63CFE9"/><stop offset="1" stop-color="#8DE0B2"/></linearGradient>
<linearGradient id="sun" x1="0" y1="0" x2=".6" y2="1"><stop stop-color="#FFEBA6"/><stop offset="1" stop-color="#F6C86B"/></linearGradient>
<radialGradient id="sunGlow"><stop stop-color="#FFE9A8" stop-opacity=".75"/><stop offset="1" stop-color="#FFE9A8" stop-opacity="0"/></radialGradient>
<radialGradient id="halo"><stop stop-color="#E3F0FF" stop-opacity=".95"/><stop offset=".7" stop-color="#EEF6FF" stop-opacity=".5"/><stop offset="1" stop-color="#F3F7FC" stop-opacity="0"/></radialGradient>
<linearGradient id="card" x1="0" y1="0" x2=".7" y2="1"><stop stop-color="#E9F6FF"/><stop offset=".58" stop-color="#D5ECFA"/><stop offset="1" stop-color="#D5F1EC"/></linearGradient>
<linearGradient id="tab" x1="0" y1="0" x2="1" y2="1"><stop stop-color="#69B8F7"/><stop offset="1" stop-color="#408FF3"/></linearGradient>
<linearGradient id="line1" x1="0" y1="0" x2="1" y2="0"><stop stop-color="#9CE7C9"/><stop offset="1" stop-color="#60D2D2"/></linearGradient>
<linearGradient id="line2" x1="0" y1="0" x2="1" y2="0"><stop stop-color="#B9E8F7"/><stop offset="1" stop-color="#74B8F3"/></linearGradient>
<linearGradient id="paper" x1="0" y1="0" x2="0" y2="1"><stop stop-color="#FFFFFF"/><stop offset="1" stop-color="#EEF5FD"/></linearGradient>
<linearGradient id="mintG" x1="0" y1="0" x2="1" y2="1"><stop stop-color="#9CE7C9"/><stop offset="1" stop-color="#3FBF8F"/></linearGradient>
<linearGradient id="wave1" x1="0" y1="0" x2="1" y2="0"><stop stop-color="#D5EFEA"/><stop offset="1" stop-color="#D8EAFB"/></linearGradient>
<linearGradient id="wave2" x1="0" y1="0" x2="1" y2="0"><stop stop-color="#CFEDE9"/><stop offset="1" stop-color="#CDE2F8"/></linearGradient>
<linearGradient id="cloud" x1="0" y1="0" x2="0" y2="1"><stop stop-color="#FFFFFF"/><stop offset="1" stop-color="#E4F0FD"/></linearGradient>
</defs><g id="bg"><circle cx="120" cy="92" r="84" fill="url(#halo)"/></g><ellipse id="ground" cx="122" cy="152" rx="62" ry="6" fill="#142238" fill-opacity=".07"/><g id="main"><rect x="70" y="56" width="100" height="84" rx="22" fill="url(#paper)" stroke="#D9E8F7" stroke-width="1.2"/><rect x="82" y="70" width="18" height="14" rx="4" stroke="#BFD7F1" stroke-width="1.3" stroke-dasharray="2.4 2.4"/><rect x="106" y="70" width="18" height="14" rx="4" stroke="#BFD7F1" stroke-width="1.3" stroke-dasharray="2.4 2.4"/><rect x="130" y="70" width="18" height="14" rx="4" stroke="#BFD7F1" stroke-width="1.3" stroke-dasharray="2.4 2.4"/><rect x="82" y="90" width="18" height="14" rx="4" stroke="#BFD7F1" stroke-width="1.3" stroke-dasharray="2.4 2.4"/><rect x="106" y="90" width="18" height="14" rx="4" stroke="#BFD7F1" stroke-width="1.3" stroke-dasharray="2.4 2.4"/><rect x="130" y="90" width="18" height="14" rx="4" stroke="#BFD7F1" stroke-width="1.3" stroke-dasharray="2.4 2.4"/><rect x="82" y="110" width="18" height="14" rx="4" stroke="#BFD7F1" stroke-width="1.3" stroke-dasharray="2.4 2.4"/><rect x="106" y="110" width="18" height="14" rx="4" stroke="#BFD7F1" stroke-width="1.3" stroke-dasharray="2.4 2.4"/><rect x="130" y="110" width="18" height="14" rx="4" stroke="#BFD7F1" stroke-width="1.3" stroke-dasharray="2.4 2.4"/></g><g id="sparkle"><circle cx="152" cy="112" r="20" fill="#FFFFFF" fill-opacity=".7"/><circle cx="152" cy="112" r="20" stroke="url(#brand)" stroke-width="6"/><path d="M166.5 126.5L180 140" stroke="url(#brand)" stroke-width="8" stroke-linecap="round"/><path d="M142 104C145 100 150 99 154 100" stroke="#FFFFFF" stroke-width="3" stroke-linecap="round"/></g></svg>
