<svg xmlns="http://www.w3.org/2000/svg" width="661" height="625" viewBox="0 0 661 625" fill="none">
  <defs>
    <linearGradient id="markGrad" x1="300" y1="298" x2="505" y2="798" gradientUnits="userSpaceOnUse">
      <stop offset="0" stop-color="#4CA4FF"/>
      <stop offset="0.5" stop-color="#63CFE9"/>
      <stop offset="1" stop-color="#8DE0B2"/>
    </linearGradient>
    <linearGradient id="roofGrad" x1="528" y1="458" x2="833" y2="560" gradientUnits="userSpaceOnUse">
      <stop offset="0" stop-color="#6BC8F0"/>
      <stop offset="0.46" stop-color="#58ADF6"/>
      <stop offset="1" stop-color="#67D5CF"/>
    </linearGradient>
    <linearGradient id="sunGrad" x1="642" y1="318" x2="795" y2="500" gradientUnits="userSpaceOnUse">
      <stop offset="0" stop-color="#FFEBA6"/>
      <stop offset="1" stop-color="#F6C86B"/>
    </linearGradient>
    <linearGradient id="calGrad" x1="550" y1="565" x2="804" y2="792" gradientUnits="userSpaceOnUse">
      <stop offset="0" stop-color="#E9F6FF"/>
      <stop offset="0.58" stop-color="#D5ECFA"/>
      <stop offset="1" stop-color="#D5F1EC"/>
    </linearGradient>
    <linearGradient id="tabGrad" x1="0" y1="0" x2="1" y2="1">
      <stop offset="0" stop-color="#69B8F7"/>
      <stop offset="1" stop-color="#408FF3"/>
    </linearGradient>
    <linearGradient id="line1Grad" x1="610" y1="0" x2="748" y2="0" gradientUnits="userSpaceOnUse">
      <stop offset="0" stop-color="#9CE7C9"/>
      <stop offset="1" stop-color="#60D2D2"/>
    </linearGradient>
    <linearGradient id="line2Grad" x1="610" y1="0" x2="727" y2="0" gradientUnits="userSpaceOnUse">
      <stop offset="0" stop-color="#B9E8F7"/>
      <stop offset="1" stop-color="#74B8F3"/>
    </linearGradient>
    <clipPath id="sunClip">
      <circle cx="708" cy="410" r="95"/>
    </clipPath>
  </defs>
  <g id="mark" transform="translate(-205 -188)">
    <g id="shi">
      <rect x="337" y="286" width="80" height="492" rx="40" fill="url(#markGrad)"/>
      <rect x="230" y="444" width="272" height="76" rx="38" fill="url(#markGrad)"/>
    </g>
    <g id="sun">
      <circle cx="708" cy="410" r="95" fill="url(#sunGrad)"/>
      <g id="rays">
        <line x1="635.2" y1="306" x2="603" y2="260.1" stroke="url(#sunGrad)" stroke-width="28" stroke-linecap="round"/>
        <line x1="708" y1="283" x2="708" y2="227" stroke="url(#sunGrad)" stroke-width="28" stroke-linecap="round"/>
        <line x1="780.8" y1="306" x2="813" y2="260.1" stroke="url(#sunGrad)" stroke-width="28" stroke-linecap="round"/>
      </g>
      <path id="sun-cut" clip-path="url(#sunClip)" d="M607 396C635 372 675 370 708 392C741 414 771 438 796 460" stroke="#FFFDF8" stroke-width="28" stroke-linecap="round"/>
    </g>
    <path id="roof" d="M533 543L646 456C659 446 678 446 691 456L812 543" stroke="url(#roofGrad)" stroke-width="58" stroke-linecap="round" stroke-linejoin="round"/>
    <g id="calendar">
      <rect x="548" y="566" width="254" height="222" rx="58" fill="url(#calGrad)"/>
      <rect x="601" y="546" width="32" height="64" rx="16" fill="url(#tabGrad)"/>
      <rect x="738" y="546" width="32" height="64" rx="16" fill="url(#tabGrad)"/>
      <rect x="584" y="622" width="182" height="128" rx="34" fill="#FBFEFF" fill-opacity="0.97"/>
      <rect x="613" y="657" width="129" height="24" rx="12" fill="url(#line1Grad)"/>
      <rect x="613" y="710" width="108" height="24" rx="12" fill="url(#line2Grad)"/>
    </g>
  </g>
</svg>
