<svg xmlns="http://www.w3.org/2000/svg" width="240" height="180" viewBox="0 0 240 180" fill="none"><defs>
<linearGradient id="brand" x1="0" y1="0" x2="1" y2="1"><stop stop-color="#4CA4FF"/><stop offset=".52" stop-color="#63CFE9"/><stop offset="1" stop-color="#8DE0B2"/></linearGradient>
<linearGradient id="brandH" x1="0" y1="0" x2="1" y2="0"><stop stop-color="#4CA4FF"/><stop offset=".52" stop-color="#63CFE9"/><stop offset="1" stop-color="#8DE0B2"/></linearGradient>
<linearGradient id="sun" x1="0" y1="0" x2=".6" y2="1"><stop stop-color="#FFEBA6"/><stop offset="1" stop-color="#F6C86B"/></linearGradient>
<radialGradient id="sunGlow"><stop stop-color="#FFE9A8" stop-opacity=".75"/><stop offset="1" stop-color="#FFE9A8" stop-opacity="0"/></radialGradient>
<radialGradient id="halo"><stop stop-color="#E3F0FF" stop-opacity=".95"/><stop offset=".7" stop-color="#EEF6FF" stop-opacity=".5"/><stop offset="1" stop-color="#F3F7FC" stop-opacity="0"/></radialGradient>
<linearGradient id="card" x1="0" y1="0" x2=".7" y2="1"><stop stop-color="#E9F6FF"/><stop offset=".58" stop-color="#D5ECFA"/><stop offset="1" stop-color="#D5F1EC"/></linearGradient>
<linearGradient id="tab" x1="0" y1="0" x2="1" y2="1"><stop stop-color="#69B8F7"/><stop offset="1" stop-color="#408FF3"/></linearGradient>
<linearGradient id="line1" x1="0" y1="0" x2="1" y2="0"><stop stop-color="#9CE7C9"/><stop offset="1" stop-color="#60D2D2"/></linearGradient>
<linearGradient id="line2" x1="0" y1="0" x2="1" y2="0"><stop stop-color="#B9E8F7"/><stop offset="1" stop-color="#74B8F3"/></linearGradient>
<linearGradient id="paper" x1="0" y1="0" x2="0" y2="1"><stop stop-color="#FFFFFF"/><stop offset="1" stop-color="#EEF5FD"/></linearGradient>
<linearGradient id="mintG" x1="0" y1="0" x2="1" y2="1"><stop stop-color="#9CE7C9"/><stop offset="1" stop-color="#3FBF8F"/></linearGradient>
<linearGradient id="wave1" x1="0" y1="0" x2="1" y2="0"><stop stop-color="#D5EFEA"/><stop offset="1" stop-color="#D8EAFB"/></linearGradient>
<linearGradient id="wave2" x1="0" y1="0" x2="1" y2="0"><stop stop-color="#CFEDE9"/><stop offset="1" stop-color="#CDE2F8"/></linearGradient>
<linearGradient id="cloud" x1="0" y1="0" x2="0" y2="1"><stop stop-color="#FFFFFF"/><stop offset="1" stop-color="#E4F0FD"/></linearGradient>
</defs><g id="bg"><circle cx="120" cy="96" r="84" fill="url(#halo)"/></g><ellipse id="ground" cx="120" cy="160" rx="64" ry="6" fill="#142238" fill-opacity=".07"/><g id="main"><rect x="58" y="72" width="124" height="80" rx="22" fill="url(#card)"/><rect x="68" y="84" width="23" height="16" rx="5" fill="#FFFFFF" fill-opacity=".85"/><rect x="95" y="84" width="23" height="16" rx="5" fill="#FFFFFF" fill-opacity=".85"/><rect x="122" y="84" width="23" height="16" rx="5" fill="#FFFFFF" fill-opacity=".85"/><rect x="149" y="84" width="23" height="16" rx="5" fill="#FFFFFF" fill-opacity=".85"/><rect x="68" y="104" width="23" height="16" rx="5" fill="#FFFFFF" fill-opacity=".85"/><rect x="95" y="104" width="23" height="16" rx="5" fill="#FFFFFF" fill-opacity=".85"/><rect x="122" y="104" width="23" height="16" rx="5" fill="#FFFFFF" fill-opacity=".85"/><rect x="149" y="104" width="23" height="16" rx="5" fill="#FFFFFF" fill-opacity=".85"/><rect x="68" y="124" width="23" height="16" rx="5" fill="#FFFFFF" fill-opacity=".85"/><rect x="95" y="124" width="23" height="16" rx="5" fill="#FFFFFF" fill-opacity=".85"/><rect x="122" y="124" width="23" height="16" rx="5" fill="#FFFFFF" fill-opacity=".85"/><rect x="149" y="124" width="23" height="16" rx="5" fill="#FFFFFF" fill-opacity=".85"/><g transform="rotate(0 79.5 102)"><rect x="68" y="84" width="23" height="36" rx="5.1" fill="#E8F2FF"/><rect x="68" y="88.3" width="2.2" height="27.4" rx="1.2" fill="#4A90F0"/><rect x="74.4" y="91.9" width="11.5" height="3.6" rx="1.4" fill="#4A90F0" fill-opacity=".55"/></g><g transform="rotate(0 106.5 122)"><rect x="95" y="104" width="23" height="36" rx="5.1" fill="#E4F6EF"/><rect x="95" y="108.3" width="2.2" height="27.4" rx="1.2" fill="#3DBE8B"/><rect x="101.4" y="111.9" width="11.5" height="3.6" rx="1.4" fill="#3DBE8B" fill-opacity=".55"/></g><g transform="rotate(0 160.5 92)"><rect x="149" y="84" width="23" height="16" rx="3.5" fill="#EFECFF"/><rect x="149" y="85.9" width="2.2" height="12.2" rx="1.2" fill="#8C7BF0"/><rect x="155.4" y="87.5" width="11.5" height="2.4" rx="1.4" fill="#8C7BF0" fill-opacity=".55"/></g><g transform="rotate(0 133.5 132)"><rect x="122" y="124" width="23" height="16" rx="3.5" fill="#FFF0E6"/><rect x="122" y="125.9" width="2.2" height="12.2" rx="1.2" fill="#F39A62"/><rect x="128.4" y="127.5" width="11.5" height="2.4" rx="1.4" fill="#F39A62" fill-opacity=".55"/></g></g><g id="sparkle"><path d="M136 52V70" stroke="#9BC9EE" stroke-width="2" stroke-linecap="round" stroke-dasharray="2 5"/><g transform="rotate(8 136 71)"><rect x="124" y="60" width="24" height="22" rx="4.8" fill="#FDECF2"/><rect x="124" y="62.6" width="2.2" height="16.7" rx="1.2" fill="#E7779D"/><rect x="130.7" y="64.8" width="12" height="2.4" rx="1.4" fill="#E7779D" fill-opacity=".55"/></g></g><path d="M60 55C60.6 59.4 60.6 59.4 65 60C60.6 60.6 60.6 60.6 60 65C59.4 60.6 59.4 60.6 55 60C59.4 59.4 59.4 59.4 60 55Z" fill="#F6C86B" fill-opacity="0.9"/></svg>
